<svg width="167" height="50" viewBox="0 0 167 39" fill="none" xmlns="http://www.w3.org/2000/svg">
<path d="M13.583 0.62168L18.5 9.13695L23.417 0.62168C21.8345 0.20722 20.1955 -9.82811e-06 18.5 -9.82811e-06C16.8045 -9.82811e-06 15.1655 0.20722 13.583 0.62168ZM27.1848 14.1482H37C36.1146 10.889 34.4002 7.96893 32.1018 5.65172L27.1848 14.1482ZM0 14.1482H9.81517L4.89817 5.65172C2.5998 7.96893 0.885438 10.889 0 14.1482ZM27.1848 24.1706L32.1018 32.667C34.4002 30.3498 36.1146 27.4297 37 24.1706H27.1848ZM0 24.1706C0.885438 27.4297 2.5998 30.3498 4.89817 32.667L9.81517 24.1706H0ZM13.583 37.697C15.1655 38.1115 16.8045 38.3187 18.5 38.3187C20.1955 38.3187 21.8345 38.1115 23.417 37.697L18.5 29.1818L13.583 37.697Z" fill="white"/>
<path fill-rule="evenodd" clip-rule="evenodd" d="M166.656 9.79981C166.427 10.2144 166.106 10.5363 165.693 10.7655C165.279 10.9942 164.847 11.1091 164.395 11.1091C163.944 11.1091 163.511 10.9942 163.098 10.7655C162.685 10.5363 162.363 10.2144 162.133 9.79981C161.902 9.38526 161.787 8.95313 161.787 8.50457C161.787 8.05074 161.904 7.61509 162.137 7.19645C162.371 6.77897 162.697 6.45765 163.114 6.23308C163.53 6.00792 163.958 5.89594 164.395 5.89594C164.833 5.89594 165.26 6.00792 165.677 6.23308C166.094 6.45765 166.418 6.77897 166.652 7.19645C166.884 7.61509 167 8.05074 167 8.50457C167 8.95313 166.886 9.38526 166.656 9.79981ZM166.276 7.41456C166.082 7.06569 165.81 6.79714 165.463 6.60951C165.116 6.42247 164.759 6.32807 164.395 6.32807C164.029 6.32807 163.673 6.42247 163.327 6.60951C162.98 6.79714 162.709 7.06569 162.513 7.41456C162.317 7.76344 162.22 8.12697 162.22 8.50399C162.22 8.87983 162.316 9.23927 162.507 9.58345C162.7 9.92822 162.969 10.1962 163.314 10.3885C163.66 10.5808 164.02 10.677 164.395 10.677C164.771 10.677 165.131 10.5808 165.477 10.3885C165.822 10.1962 166.091 9.92822 166.282 9.58345C166.472 9.23927 166.568 8.87983 166.568 8.50399C166.568 8.12697 166.471 7.76344 166.276 7.41456ZM165.24 9.17828C165.336 9.58462 165.406 9.86606 165.461 9.97806H165.072C165.025 9.89597 164.96 9.6456 164.882 9.28207C164.796 8.87984 164.636 8.72856 164.293 8.71566H163.939V9.97806H163.563V7.10674C163.753 7.06745 164.03 7.04165 164.285 7.04165C164.687 7.04165 164.951 7.11905 165.133 7.28381C165.276 7.40929 165.362 7.60806 165.362 7.83732C165.362 8.21785 165.116 8.4735 164.813 8.5767V8.5896C165.034 8.66758 165.167 8.87573 165.24 9.17828ZM164.982 7.87602C164.982 7.50017 164.709 7.33541 164.31 7.33541C164.129 7.33541 164.004 7.35241 163.939 7.37059V8.43011H164.325C164.726 8.43011 164.982 8.20906 164.982 7.87602Z" fill="white"/>
<path fill-rule="evenodd" clip-rule="evenodd" d="M57.2636 7.92317C58.3704 7.92317 59.2846 8.08269 60.0071 8.40093C60.7295 8.72082 61.3627 9.05808 61.9066 9.41517V12.0322C61.3817 11.6379 60.7436 11.2676 59.993 10.9204C59.2433 10.5732 58.4266 10.3996 57.5446 10.3996C56.9826 10.3996 56.3957 10.498 55.7856 10.6956C55.1764 10.8923 54.6648 11.2064 54.2523 11.6379C53.839 12.0702 53.6332 12.6232 53.6332 13.2977C53.6332 14.0483 53.9051 14.6211 54.4499 15.0146C54.9929 15.4088 55.6501 15.7841 56.4196 16.1404L59.0086 17.3224C60.303 17.9035 61.2784 18.5507 61.9347 19.2641C62.5919 19.9775 62.92 20.9247 62.92 22.1059C62.92 23.1384 62.6191 24.0435 62.019 24.8213C61.4189 25.6008 60.6312 26.215 59.6558 26.6655C58.6796 27.116 57.6108 27.3408 56.4478 27.3408C55.3591 27.3408 54.3548 27.1531 53.4364 26.7779C52.5164 26.4026 51.7196 25.981 51.0443 25.5115V22.8937C51.7758 23.4012 52.6148 23.8559 53.5629 24.2592C54.5102 24.6626 55.584 24.8643 56.785 24.8643C57.7232 24.8643 58.5481 24.6295 59.2615 24.1609C59.974 23.6922 60.3311 23.045 60.3311 22.2192C60.3311 21.7505 60.1856 21.3463 59.8947 21.009C59.6037 20.671 59.2516 20.38 58.8391 20.1362C58.4266 19.8923 58.0232 19.6857 57.629 19.517L54.5061 18.1102C53.1546 17.51 52.2354 16.8066 51.7477 15.9999C51.26 15.1931 51.0162 14.2648 51.0162 13.2134C51.0162 12.219 51.3022 11.3238 51.8742 10.5261C52.4462 9.72927 53.2116 9.09611 54.168 8.6266C55.1252 8.15792 56.1568 7.92317 57.2636 7.92317ZM73.8666 12.7067C75.0859 12.7067 76.1886 13.0026 77.1739 13.5945C78.1584 14.1846 78.9469 15.0104 79.5379 16.0701C80.129 17.1306 80.4241 18.3738 80.4241 19.7989C80.4241 21.338 80.129 22.6837 79.5379 23.8368C78.9469 24.9916 78.1402 25.8876 77.1177 26.5249C76.0952 27.1622 74.9363 27.4813 73.6418 27.4813C72.8351 27.4813 72.0142 27.2656 71.1794 26.8341C70.3445 26.4034 69.627 25.8496 69.0269 25.1734V33.8139H66.7191V12.9886H69.0269V15.3807C69.5146 14.631 70.1759 13.9978 71.0108 13.4812C71.8456 12.9654 72.7979 12.7067 73.8666 12.7067ZM73.5013 14.9583C72.6573 14.9583 71.8927 15.1749 71.2083 15.6056C70.5222 16.0379 69.9883 16.633 69.6039 17.3927C69.2187 18.1523 69.0269 19.0393 69.0269 20.0518L69.055 22.754C69.6551 23.4855 70.2833 24.0815 70.9405 24.5411C71.5968 25.0007 72.3565 25.2305 73.2202 25.2305C74.2328 25.2305 75.0958 24.9676 75.8092 24.4427C76.5217 23.917 77.0705 23.2375 77.4549 22.4019C77.8393 21.567 78.0319 20.6991 78.0319 19.7989C78.0319 18.8797 77.8442 18.0589 77.469 17.3365C77.0937 16.6148 76.5688 16.0379 75.8935 15.6056C75.2181 15.1749 74.4205 14.9583 73.5013 14.9583ZM90.02 12.7067C90.8268 12.7067 91.6476 12.9001 92.4825 13.2845C93.3173 13.6688 94.0348 14.1987 94.6349 14.874V12.9886H96.9428V27.0597H94.6349V24.6676C94.1472 25.4181 93.486 26.0744 92.6511 26.6374C91.8162 27.2003 90.864 27.4813 89.7952 27.4813C88.5942 27.4813 87.4964 27.1763 86.502 26.5671C85.5076 25.9579 84.7158 25.1081 84.1247 24.0203C83.5337 22.9317 83.2378 21.6753 83.2378 20.2486C83.2378 18.6929 83.5337 17.3513 84.1247 16.2247C84.7158 15.0997 85.5267 14.2318 86.5591 13.6217C87.5898 13.0125 88.7438 12.7067 90.02 12.7067ZM90.4424 14.9583C89.429 14.9583 88.566 15.2121 87.8535 15.7188C87.1402 16.2247 86.5913 16.8769 86.2069 17.6745C85.8226 18.4722 85.63 19.3302 85.63 20.2486C85.63 21.1496 85.8176 21.9795 86.1929 22.7399C86.5682 23.4996 87.098 24.1038 87.7833 24.5543C88.4677 25.0048 89.2604 25.2305 90.1606 25.2305C91.0235 25.2305 91.7931 25.0048 92.4684 24.5543C93.1438 24.1038 93.6786 23.4814 94.0728 22.6837C94.4663 21.8861 94.6539 20.9908 94.6349 19.9965L94.6077 17.2943C94.0249 16.5619 93.4017 15.9908 92.7354 15.5775C92.07 15.165 91.3046 14.9583 90.4424 14.9583ZM104.034 12.9886V15.8023C104.578 14.8649 105.234 14.1136 106.004 13.5515C106.773 12.9886 107.561 12.7067 108.368 12.7067C108.913 12.7067 109.4 12.8009 109.831 12.9886V15.6618C109.231 15.3063 108.63 15.127 108.03 15.127C107.074 15.127 106.3 15.465 105.708 16.1404C105.118 16.8157 104.559 17.6225 104.034 18.5607V27.0589H101.726V12.9886H104.034ZM125.225 12.9886L118.696 19.1236L125.59 27.0589H122.663L117.092 20.6429L115.094 22.5002V27.0589H112.786V6.79734H115.094V19.8551L122.102 12.9886H125.225ZM128.123 6.79651H130.431V27.0589H128.123V6.79651ZM141.013 12.7067C142.457 12.7067 143.658 13.0076 144.614 13.6077C145.572 14.2086 146.289 15.0245 146.768 16.0561C147.246 17.0877 147.485 18.2507 147.485 19.546V20.9247H136.679C136.792 21.7125 137.063 22.4349 137.495 23.0912C137.926 23.7484 138.489 24.2691 139.184 24.6535C139.877 25.0379 140.676 25.2305 141.576 25.2305C142.588 25.2305 143.536 24.9726 144.418 24.456C145.3 23.9402 146.04 23.3731 146.641 22.754L146.612 25.2586C146.35 25.5777 145.961 25.9108 145.445 26.2571C144.928 26.6051 144.337 26.8952 143.672 27.13C143.006 27.3639 142.307 27.4813 141.576 27.4813C140.15 27.4813 138.884 27.144 137.777 26.4687C136.669 25.7926 135.801 24.8974 135.174 23.7815C134.545 22.6647 134.231 21.4414 134.231 20.1081C134.231 18.7764 134.521 17.5481 135.104 16.4222C135.685 15.2964 136.486 14.3954 137.51 13.7201C138.531 13.0456 139.699 12.7067 141.013 12.7067ZM141.013 14.9583C139.85 14.9583 138.893 15.3485 138.142 16.1263C137.392 16.905 136.923 17.8481 136.735 18.9549H145.205C145.112 18.0358 144.854 17.2844 144.433 16.7033C144.01 16.1222 143.498 15.6857 142.898 15.3948C142.298 15.1046 141.669 14.9583 141.013 14.9583ZM157.644 12.7067C159.07 12.7067 160.336 13.0456 161.443 13.7201C162.551 14.3954 163.417 15.2964 164.046 16.4222C164.675 17.5481 164.989 18.7764 164.989 20.1081C164.989 21.4414 164.675 22.6647 164.046 23.7815C163.417 24.8974 162.551 25.7926 161.443 26.4687C160.336 27.144 159.07 27.4813 157.644 27.4813C156.218 27.4813 154.952 27.144 153.845 26.4687C152.737 25.7926 151.87 24.8974 151.242 23.7815C150.613 22.6647 150.299 21.4414 150.299 20.1081C150.299 18.7764 150.613 17.5481 151.242 16.4222C151.87 15.2964 152.737 14.3954 153.845 13.7201C154.952 13.0456 156.218 12.7067 157.644 12.7067ZM157.644 14.9583C156.65 14.9583 155.777 15.1981 155.027 15.6758C154.276 16.1544 153.7 16.7835 153.296 17.5613C152.893 18.3408 152.691 19.1897 152.691 20.1081C152.691 21.009 152.893 21.8489 153.296 22.6267C153.7 23.4062 154.276 24.0336 155.027 24.513C155.777 24.9916 156.65 25.2305 157.644 25.2305C158.657 25.2305 159.534 24.9916 160.276 24.513C161.017 24.0336 161.588 23.4062 161.992 22.6267C162.395 21.8489 162.597 21.009 162.597 20.1081C162.597 19.1897 162.395 18.3408 161.992 17.5613C161.588 16.7835 161.017 16.1544 160.276 15.6758C159.534 15.1981 158.657 14.9583 157.644 14.9583Z" fill="white"/>
</svg>
